<svg xmlns="http://www.w3.org/2000/svg" viewBox="0 0 700 400">
  <defs>
    <linearGradient id="ticketGradient" x1="0%" y1="0%" x2="100%" y2="100%">
      <stop offset="0%" stop-color="#0075F6"/>
      <stop offset="45%" stop-color="#0B4FC0"/>
      <stop offset="100%" stop-color="#031E45"/>
    </linearGradient>
    <linearGradient id="lineGradient" x1="0%" y1="0%" x2="100%" y2="100%">
      <stop offset="0%" stop-color="#1E7CFA"/>
      <stop offset="100%" stop-color="#0857D6"/>
    </linearGradient>
  </defs>

  <!-- Ticket body (traced outline, notches included) -->
  <path d="M 664.0,45.0 L 649.0,31.0 L 650.0,30.0 L 648.0,31.0 L 648.0,29.0 L 646.0,30.0 L 639.0,26.0 L 631.0,24.0 L 609.0,24.0 L 506.0,54.0 L 491.0,57.0 L 484.0,60.0 L 437.0,72.0 L 434.0,74.0 L 430.0,74.0 L 290.0,114.0 L 257.0,122.0 L 247.0,126.0 L 214.0,134.0 L 202.0,139.0 L 189.0,150.0 L 188.0,149.0 L 189.0,150.0 L 184.0,156.0 L 176.0,176.0 L 176.0,198.0 L 183.0,218.0 L 184.0,225.0 L 186.0,226.0 L 197.0,223.0 L 210.0,223.0 L 226.0,228.0 L 236.0,235.0 L 235.0,236.0 L 236.0,235.0 L 244.0,243.0 L 243.0,244.0 L 244.0,243.0 L 252.0,255.0 L 256.0,269.0 L 256.0,284.0 L 253.0,295.0 L 248.0,304.0 L 235.0,318.0 L 226.0,323.0 L 214.0,327.0 L 218.0,336.0 L 222.0,353.0 L 226.0,360.0 L 225.0,362.0 L 226.0,361.0 L 229.0,365.0 L 228.0,367.0 L 229.0,366.0 L 240.0,377.0 L 240.0,379.0 L 239.0,378.0 L 241.0,377.0 L 246.0,382.0 L 253.0,385.0 L 251.0,386.0 L 254.0,385.0 L 267.0,389.0 L 291.0,388.0 L 298.0,385.0 L 314.0,381.0 L 315.0,382.0 L 317.0,380.0 L 318.0,381.0 L 321.0,379.0 L 441.0,346.0 L 445.0,346.0 L 452.0,343.0 L 460.0,342.0 L 493.0,332.0 L 496.0,333.0 L 497.0,331.0 L 548.0,318.0 L 555.0,315.0 L 681.0,282.0 L 694.0,275.0 L 704.0,265.0 L 704.0,268.0 L 706.0,265.0 L 705.0,263.0 L 712.0,252.0 L 716.0,237.0 L 716.0,223.0 L 706.0,186.0 L 704.0,185.0 L 693.0,188.0 L 683.0,188.0 L 662.0,181.0 L 651.0,173.0 L 646.0,167.0 L 647.0,165.0 L 645.0,165.0 L 642.0,161.0 L 636.0,145.0 L 635.0,134.0 L 637.0,122.0 L 639.0,119.0 L 640.0,122.0 L 639.0,117.0 L 646.0,105.0 L 661.0,92.0 L 679.0,86.0 L 672.0,59.0 Z" fill="url(#ticketGradient)"/>

  <!-- Airplane -->
  <path d="M 495.0,129.0 L 499.0,133.0 L 497.0,144.0 L 487.0,162.0 L 477.0,174.0 L 475.0,174.0 L 476.0,173.0 L 477.0,175.0 L 470.0,182.0 L 468.0,181.0 L 468.0,183.0 L 440.0,209.0 L 438.0,208.0 L 439.0,207.0 L 439.0,209.0 L 434.0,214.0 L 432.0,213.0 L 433.0,215.0 L 415.0,232.0 L 412.0,234.0 L 411.0,233.0 L 412.0,234.0 L 389.0,256.0 L 387.0,255.0 L 387.0,258.0 L 367.0,277.0 L 365.0,276.0 L 365.0,278.0 L 357.0,286.0 L 355.0,285.0 L 356.0,286.0 L 348.0,294.0 L 347.0,293.0 L 348.0,294.0 L 322.0,318.0 L 319.0,320.0 L 317.0,318.0 L 318.0,320.0 L 316.0,321.0 L 314.0,319.0 L 331.0,292.0 L 333.0,290.0 L 334.0,292.0 L 334.0,285.0 L 332.0,286.0 L 315.0,275.0 L 302.0,269.0 L 299.0,265.0 L 310.0,256.0 L 343.0,259.0 L 379.0,221.0 L 376.0,218.0 L 362.0,211.0 L 362.0,209.0 L 359.0,210.0 L 354.0,207.0 L 354.0,205.0 L 352.0,206.0 L 322.0,190.0 L 322.0,188.0 L 320.0,189.0 L 311.0,183.0 L 312.0,182.0 L 310.0,182.0 L 310.0,180.0 L 327.0,168.0 L 417.0,179.0 L 423.0,173.0 L 425.0,174.0 L 424.0,172.0 L 431.0,166.0 L 433.0,167.0 L 432.0,165.0 L 442.0,155.0 L 462.0,139.0 L 466.0,139.0 L 465.0,138.0 L 467.0,136.0 L 472.0,136.0 L 472.0,134.0 L 482.0,130.0 Z" fill="#ffffff"/>

  <!-- Dashed tear line -->
  <g fill="#ffffff">
    <path d="M 594.0,264.0 L 599.0,267.0 L 602.0,276.0 L 601.0,277.0 L 604.0,283.0 L 603.0,287.0 L 600.0,289.0 L 596.0,289.0 L 593.0,286.0 L 593.0,283.0 L 589.0,272.0 L 590.0,267.0 L 591.0,270.0 L 592.0,268.0 L 593.0,269.0 L 590.0,266.0 Z"/>
    <path d="M 582.0,226.0 L 587.0,227.0 L 589.0,231.0 L 591.0,242.0 L 593.0,246.0 L 590.0,250.0 L 589.0,248.0 L 590.0,247.0 L 589.0,251.0 L 585.0,251.0 L 582.0,248.0 L 582.0,245.0 L 577.0,231.0 Z"/>
    <path d="M 571.0,186.0 L 575.0,188.0 L 574.0,190.0 L 575.0,188.0 L 577.0,190.0 L 577.0,193.0 L 582.0,207.0 L 580.0,210.0 L 579.0,209.0 L 580.0,211.0 L 578.0,213.0 L 574.0,213.0 L 573.0,212.0 L 574.0,210.0 L 573.0,211.0 L 571.0,210.0 L 572.0,208.0 L 571.0,209.0 L 570.0,208.0 L 569.0,201.0 L 567.0,197.0 L 566.0,191.0 Z"/>
    <path d="M 558.0,147.0 L 562.0,147.0 L 566.0,152.0 L 566.0,156.0 L 570.0,168.0 L 569.0,171.0 L 566.0,174.0 L 564.0,174.0 L 563.0,173.0 L 564.0,172.0 L 562.0,173.0 L 559.0,170.0 L 559.0,167.0 L 557.0,164.0 L 554.0,152.0 Z"/>
    <path d="M 547.0,106.0 L 551.0,107.0 L 553.0,109.0 L 558.0,125.0 L 558.0,130.0 L 553.0,134.0 L 549.0,132.0 L 550.0,129.0 L 550.0,131.0 L 549.0,132.0 L 548.0,131.0 L 543.0,115.0 L 543.0,109.0 Z"/>
    <path d="M 534.0,62.0 L 536.0,62.0 L 540.0,65.0 L 539.0,67.0 L 540.0,66.0 L 541.0,67.0 L 546.0,84.0 L 546.0,90.0 L 542.0,93.0 L 540.0,93.0 L 536.0,90.0 L 531.0,74.0 L 530.0,65.0 Z"/>
  </g>

  <!-- Speed lines -->
  <g fill="url(#lineGradient)">
    <path d="M 185.0,259.0 L 182.0,254.0 L 176.0,251.0 L 161.0,255.0 L 157.0,255.0 L 146.0,259.0 L 142.0,259.0 L 138.0,261.0 L 134.0,261.0 L 130.0,263.0 L 97.0,271.0 L 93.0,275.0 L 92.0,283.0 L 93.0,286.0 L 99.0,291.0 L 108.0,291.0 L 115.0,288.0 L 128.0,286.0 L 131.0,284.0 L 178.0,273.0 L 185.0,267.0 Z"/>
    <path d="M 193.0,307.0 L 189.0,302.0 L 182.0,300.0 L 169.0,304.0 L 149.0,308.0 L 145.0,310.0 L 133.0,312.0 L 129.0,315.0 L 127.0,319.0 L 127.0,325.0 L 131.0,331.0 L 136.0,333.0 L 140.0,333.0 L 188.0,321.0 L 193.0,316.0 Z"/>
    <path d="M 207.0,347.0 L 205.0,344.0 L 200.0,341.0 L 193.0,341.0 L 185.0,344.0 L 150.0,352.0 L 145.0,355.0 L 143.0,358.0 L 142.0,362.0 L 143.0,366.0 L 146.0,371.0 L 151.0,373.0 L 155.0,373.0 L 185.0,365.0 L 187.0,366.0 L 192.0,363.0 L 203.0,361.0 L 206.0,358.0 L 208.0,353.0 Z"/>
    <path d="M 105.0,326.0 L 100.0,320.0 L 91.0,319.0 L 87.0,321.0 L 83.0,321.0 L 79.0,323.0 L 47.0,330.0 L 41.0,335.0 L 40.0,344.0 L 45.0,350.0 L 54.0,351.0 L 58.0,349.0 L 62.0,349.0 L 70.0,346.0 L 100.0,339.0 L 105.0,334.0 Z"/>
  </g>
</svg>
